{"title":"Valeria_TeenAnalCasting.mp4","uid":9901333,"size":587622797,"categoryP":"porn","categoryS":"movie_clips","magnet":"?xt=urn:btih:c29dbed1b0ee54ac1f6445d583e723ab6c3a35e0&amp;dn=Valeria_TeenAnalCasting.mp4&amp;tr=udp%3A%2F%2Ftracker.openbittorrent.com%3A80&amp;tr=udp%3A%2F%2Fopen.demonii.com%3A1337&amp;tr=udp%3A%2F%2Ftracker.coppersurfer.tk%3A6969&amp;tr=udp%3A%2F%2Fexodus.desync.com%3A6969","seeders":2,"leechers":1,"uploader":"athklym","files":-1,"time":1396775737,"description":" &lt;a href=&quot;http://bayimg.com/AANlDaaff&quot; rel=&quot;nofollow&quot; target=&quot;_NEW&quot;&gt;http://bayimg.com/AANlDaaff&lt;/a&gt;\nValeria is a blonde coed that took the chance to win some extra money and auditioned for this guy. Although she was shy at first, she came around after she got to taste his thick dick. Then, he began to play with her virgin ass and before she knew it, her teeny pooper was filled by a dildo, leaving it wide open. After that, his big hard cock penetrated her rough and deep as she screamed her satisfaction and pain. \n\nValeria_TeenAnalCasting.mp4\nFormat                                   : MPEG-4\nFormat profile                           : Base Media\nCodec ID                                 : isom\nFile size                                : 560 MiB\nDuration                                 : 31mn 24s\nOverall bit rate                         : 2 495 Kbps\nEncoded date                             : UTC 2014-02-06 10:51:30\nTagged date                              : UTC 2014-02-06 10:51:30\n\nVideo\nID                                       : 1\nFormat                                   : AVC\nFormat/Info                              : Advanced Video Codec\nFormat profile                           : &lt;a class=&quot;__cf_email__&quot; href=&quot;/cdn-cgi/l/email-protection&quot; data-cfemail=&quot;7a381b091f1613141f3a3649544b&quot;&gt;[email&amp;#160;protected]&lt;/a&gt;&lt;script cf-hash='f9e31' type=&quot;text/javascript&quot;&gt;\n/* &lt;![CDATA[ */!function(){try{var t=&quot;currentScript&quot;in document?document.currentScript:function(){for(var t=document.getElementsByTagName(&quot;script&quot;),e=t.length;e--;)if(t[e].getAttribute(&quot;cf-hash&quot;))return t[e]}();if(t&amp;&amp;t.previousSibling){var e,r,n,i,c=t.previousSibling,a=c.getAttribute(&quot;data-cfemail&quot;);if(a){for(e=&quot;&quot;,r=parseInt(a.substr(0,2),16),n=2;a.length-n;n+=2)i=parseInt(a.substr(n,2),16)^r,e+=String.fromCharCode(i);e=document.createTextNode(e),c.parentNode.replaceChild(e,c)}}}catch(u){}}();/* ]]&gt; */&lt;/script&gt;\nFormat settings, CABAC                   : No\nFormat settings, ReFrames                : 1 frame\nCodec ID                                 : avc1\nCodec ID/Info                            : Advanced Video Coding\nDuration                                 : 31mn 24s\nBit rate                                 : 2 398 Kbps\nMaximum bit rate                         : 4 302 Kbps\nWidth                                    : 1 024 pixels\nHeight                                   : 576 pixels\nDisplay aspect ratio                     : 16:9\nFrame rate mode                          : Constant\nFrame rate                               : 25.000 fps\nColor space                              : YUV\nChroma subsampling                       : 4:2:0\nBit depth                                : 8 bits\nScan type                                : Progressive\nBits/(Pixel*Frame)                       : 0.163\nStream size                              : 539 MiB (96%)\nWriting library                          : x264 core 130 r2273 b3065e6\nEncoding settings                        : cabac=0 / ref=1 / deblock=0:0:0 / analyse=0:0 / me=dia / subme=0 / psy=1 / psy_rd=1.00:0.00 / mixed_ref=0 / me_range=16 / chroma_me=1 / trellis=0 / 8x8dct=0 / cqm=0 / deadzone=21,11 / fast_pskip=1 / chroma_qp_offset=0 / threads=12 / lookahead_threads=2 / sliced_threads=0 / nr=0 / decimate=1 / interlaced=0 / bluray_compat=0 / constrained_intra=0 / bframes=0 / weightp=0 / keyint=250 / keyint_min=25 / scenecut=0 / intra_refresh=0 / rc=crf / mbtree=0 / crf=24.0 / qcomp=0.60 / qpmin=0 / qpmax=69 / qpstep=4 / ip_ratio=1.40 / aq=0\nEncoded date                             : UTC 2014-02-06 10:51:30\nTagged date                              : UTC 2014-02-06 10:51:34\n\nAudio\nID                                       : 2\nFormat                                   : AC-3\nFormat/Info                              : Audio Coding 3\nMode extension                           : CM (complete main)\nFormat settings, Endianness              : Big\nCodec ID                                 : ac-3\nDuration                                 : 31mn 24s\nBit rate mode                            : Constant\nBit rate                                 : 96.0 Kbps\nChannel count                            : 2 channels\nChannel positions                        : Front: L R\nSampling rate                            : 48.0 KHz\nBit depth                                : 16 bits\nCompression mode                         : Lossy\nStream size                              : 21.6 MiB (4%)\nEncoded date                             : UTC 2014-02-06 10:51:33\nTagged date                              : UTC 2014-02-06 10:51:34\n\n","torrent":{"xt":"urn:btih:c29dbed1b0ee54ac1f6445d583e723ab6c3a35e0","amp;dn":"Valeria_TeenAnalCasting.mp4","amp;tr":["udp%3A%2F%2Ftracker.openbittorrent.com%3A80","udp%3A%2F%2Fopen.demonii.com%3A1337","udp%3A%2F%2Ftracker.coppersurfer.tk%3A6969","udp%3A%2F%2Fexodus.desync.com%3A6969"],"infoHash":"c29dbed1b0ee54ac1f6445d583e723ab6c3a35e0","infoHashBuffer":{"type":"Buffer","data":[194,157,190,209,176,238,84,172,31,100,69,213,131,231,35,171,108,58,53,224]},"announce":[],"urlList":[]}}